<svg width="44" height="71" viewBox="0 0 44 71" fill="none" xmlns="http://www.w3.org/2000/svg">
<path d="M17.8904 18.2857C18.4566 16.8107 19.3948 15.5072 20.6139 14.502L27.6164 8.72774L34.3679 11.3194L35.8076 20.3025C36.0629 21.8954 35.8929 23.5276 35.3147 25.0337L21.0839 62.1064C20.7404 63.0012 20.2325 63.8238 19.5865 64.5318L17.7746 66.5172C16.8667 67.5121 15.5137 67.9652 14.2321 67.6546C11.2049 66.9209 8.9086 66.0036 5.83855 64.3457C4.83295 63.8026 4.14496 62.8074 3.95536 61.6654L3.47723 58.7855C3.25319 57.4361 3.39352 56.0513 3.88373 54.7743L17.8904 18.2857Z" fill="white" stroke="#101333" stroke-width="1.01981"/>
<path d="M30.1871 3.47249C29.4443 3.53333 28.8205 4.04127 28.5534 4.73707L27.6129 7.18711C27.6114 7.19093 27.61 7.19475 27.6088 7.19859C27.3066 7.2466 27.0377 7.45001 26.9202 7.75614C26.7449 8.21276 26.9729 8.72503 27.4296 8.90031L34.5263 11.6245C34.9829 11.7998 35.4952 11.5717 35.6705 11.1151C35.788 10.8088 35.7241 10.4775 35.5315 10.2397C35.5341 10.2341 35.5365 10.2285 35.5387 10.2227L36.4947 7.73224C36.7522 7.0613 36.6488 6.29447 36.1676 5.76067C34.3863 3.78451 32.7964 3.25877 30.1871 3.47249Z" fill="#101333"/>
<path d="M5.58671 50.3382L16.3643 22.2615C23.7422 23.7979 27.7044 25.2273 33.7431 28.9222L22.9707 56.9853C17.184 53.3695 13.0783 51.9455 5.58671 50.3382Z" fill="#101333" stroke="#101333" stroke-width="1.01981"/>
<path opacity="0.5" d="M20.0246 48.1307C20.081 48.1523 20.1256 48.1919 20.1583 48.2492C20.1884 48.3006 20.2051 48.3543 20.2085 48.4104C20.0888 48.4889 19.9642 48.5929 19.8348 48.7225C19.7071 48.8477 19.5966 49.0318 19.5033 49.2748C19.4017 49.5394 19.3709 49.8014 19.4107 50.0607C19.4523 50.3156 19.5704 50.5526 19.7651 50.7717C19.9571 50.9848 20.231 51.1596 20.5868 51.2962C21.1205 51.5011 21.5718 51.525 21.9408 51.3679C22.3114 51.2065 22.5775 50.9153 22.7391 50.4944C22.8257 50.2688 22.8689 50.0589 22.8688 49.8647C22.8687 49.6705 22.8482 49.5033 22.8074 49.3632C22.8414 49.3265 22.8898 49.2977 22.9525 49.277C23.0109 49.2546 23.0704 49.2551 23.1312 49.2784C23.1746 49.295 23.213 49.3247 23.2464 49.3674C23.2771 49.4041 23.3012 49.4581 23.3186 49.5295C23.3497 49.656 23.358 49.816 23.3434 50.0095C23.3332 50.2047 23.2764 50.4369 23.1732 50.7059C23.0349 51.066 22.8332 51.3645 22.5681 51.6012C22.3003 51.832 21.9821 51.9737 21.6134 52.0263C21.2447 52.0789 20.8325 52.0178 20.3769 51.8429C19.9213 51.668 19.5728 51.4347 19.3314 51.1429C19.0916 50.8467 18.9507 50.5263 18.9088 50.1816C18.8642 49.8309 18.9076 49.4842 19.0392 49.1414C19.1308 48.9028 19.2377 48.7023 19.3597 48.5401C19.4817 48.3778 19.6031 48.2626 19.7238 48.1945C19.8419 48.1203 19.9422 48.099 20.0246 48.1307ZM23.2639 44.3027C23.7152 44.4759 24.0632 44.7041 24.308 44.9872C24.5484 45.2687 24.6918 45.5826 24.738 45.9289C24.786 46.271 24.7408 46.622 24.6026 46.9822C24.466 47.338 24.2646 47.6291 23.9985 47.8555C23.7324 48.0819 23.4158 48.2193 23.0488 48.2676C22.6774 48.3142 22.2661 48.2509 21.8148 48.0777C21.3636 47.9044 21.0185 47.6749 20.7798 47.3891C20.5366 47.1016 20.3911 46.7869 20.3432 46.4449C20.2969 46.0985 20.3412 45.7496 20.4761 45.3982C20.6127 45.0424 20.8132 44.7534 21.0777 44.5314C21.3438 44.3049 21.6626 44.1684 22.034 44.1218C22.4027 44.0692 22.8126 44.1295 23.2639 44.3027ZM23.0565 44.8429C22.5402 44.6447 22.0957 44.6159 21.723 44.7567C21.3477 44.8914 21.0818 45.1627 20.9252 45.5706C20.7703 45.9741 20.7864 46.3537 20.9735 46.7092C21.1579 47.0588 21.5083 47.3327 22.0247 47.5309C22.541 47.7291 22.9869 47.7609 23.3622 47.6262C23.7331 47.4898 23.9969 47.2176 24.1535 46.8098C24.3117 46.3976 24.2986 46.0167 24.1142 45.6671C23.9254 45.3158 23.5729 45.0411 23.0565 44.8429ZM23.1916 39.8806C23.248 39.9022 23.2925 39.9417 23.3253 39.9991C23.3553 40.0505 23.3721 40.1042 23.3754 40.1602C23.2557 40.2387 23.1311 40.3428 23.0017 40.4723C22.874 40.5975 22.7635 40.7816 22.6702 41.0246C22.5686 41.2893 22.5378 41.5513 22.5777 41.8105C22.6192 42.0654 22.7373 42.3024 22.932 42.5215C23.124 42.7346 23.3979 42.9095 23.7537 43.0461C24.2874 43.2509 24.7388 43.2748 25.1077 43.1178C25.4783 42.9563 25.7444 42.6652 25.906 42.2443C25.9926 42.0187 26.0359 41.8088 26.0357 41.6145C26.0356 41.4203 26.0151 41.2532 25.9743 41.1131C26.0083 41.0763 26.0567 41.0476 26.1194 41.0269C26.1778 41.0045 26.2374 41.0049 26.2981 41.0282C26.3415 41.0449 26.3799 41.0746 26.4133 41.1173C26.444 41.154 26.4681 41.208 26.4855 41.2794C26.5166 41.4058 26.5249 41.5658 26.5103 41.7594C26.5001 41.9546 26.4434 42.1867 26.3401 42.4557C26.2019 42.8159 26.0002 43.1143 25.735 43.3511C25.4672 43.5819 25.149 43.7235 24.7803 43.7762C24.4116 43.8288 23.9995 43.7677 23.5439 43.5928C23.0883 43.4179 22.7397 43.1845 22.4983 42.8927C22.2585 42.5966 22.1176 42.2762 22.0757 41.9315C22.0311 41.5808 22.0746 41.2341 22.2062 40.8913C22.2978 40.6526 22.4046 40.4522 22.5266 40.2899C22.6486 40.1277 22.77 40.0125 22.8908 39.9443C23.0089 39.8702 23.1091 39.8489 23.1916 39.8806ZM24.096 37.4466L24.086 37.4727C24.2432 37.6077 24.4302 37.7691 24.6469 37.9568C24.8653 38.1402 25.0906 38.3313 25.323 38.53C25.5527 38.7227 25.7667 38.9044 25.965 39.0751L26.0502 39.1452C26.1183 39.2012 26.2034 39.2712 26.3056 39.3552C26.4078 39.4392 26.5156 39.5279 26.6291 39.6213C26.7383 39.713 26.8418 39.8 26.9396 39.8824C27.0331 39.9631 27.1104 40.0276 27.1715 40.0759C27.1728 40.1113 27.169 40.1472 27.16 40.1835C27.1571 40.2172 27.1464 40.258 27.1281 40.3057C27.1014 40.3751 27.0599 40.4314 27.0036 40.4745C26.9445 40.5115 26.8738 40.5142 26.7913 40.4826C26.7523 40.4676 26.7157 40.4461 26.6817 40.4181C26.6433 40.3884 26.6036 40.3558 26.5625 40.3201C26.435 40.2114 26.279 40.0793 26.0947 39.924C25.9121 39.7642 25.7124 39.5905 25.4958 39.4028C25.2791 39.2151 25.0575 39.0205 24.8312 38.8191C24.6048 38.6177 24.3841 38.421 24.1691 38.2289C23.9541 38.0368 23.7582 37.8596 23.5816 37.6972C23.5776 37.6559 23.5802 37.5971 23.5895 37.521C23.5988 37.4449 23.6176 37.37 23.6459 37.2963C23.6792 37.2095 23.7239 37.132 23.7799 37.0639C23.8376 36.9915 23.901 36.9561 23.97 36.9577C24.2617 36.9502 24.5905 36.9494 24.9566 36.9555C25.32 36.9556 25.6985 36.9616 26.0923 36.9733C26.4817 36.9834 26.86 36.9967 27.227 37.0131C27.5958 37.0252 27.9291 37.0387 28.2271 37.0535C28.2545 37.0989 28.2691 37.1517 28.2708 37.2121C28.2785 37.2699 28.2707 37.3291 28.2474 37.3898C28.2157 37.4723 28.1742 37.5285 28.1229 37.5586C28.0672 37.587 27.9901 37.5997 27.8916 37.5968L26.6933 37.5475L26.4911 37.5296C26.1931 37.5148 25.8913 37.5035 25.5856 37.4957C25.2816 37.4836 24.9988 37.4746 24.7372 37.4687C24.4772 37.4586 24.2635 37.4512 24.096 37.4466ZM26.174 39.4839L25.8029 39.1473L26.5 37.3314L26.976 37.3947L26.174 39.4839Z" fill="white"/>
<path d="M18.748 17.2887C18.8023 17.9171 20.0509 19.4637 24.6107 20.6229C30.3103 22.0719 28.3649 20.9803 32.5723 22.5954C35.3073 23.6453 35.6574 24.5678 35.6344 24.756" stroke="#101333" stroke-width="0.275923" stroke-linecap="round" stroke-dasharray="1.84 1.84"/>
<path d="M4.04869 56.9913C4.49692 56.5725 6.4059 56.2672 10.456 58.3968C15.5187 61.0589 13.4021 60.5818 17.4943 62.1526C20.1544 63.1737 21.0078 62.7347 21.1136 62.5837" stroke="#101333" stroke-width="0.268364" stroke-linecap="round" stroke-dasharray="1.79 1.79"/>
</svg>
