<svg width="32" height="55" viewBox="0 0 32 55" fill="none" xmlns="http://www.w3.org/2000/svg">
<path d="M3.16825 2.12061H29.4042V4.01792C29.4042 4.29631 29.4608 4.57179 29.5705 4.82767L30.8211 7.74577L31.5172 7.44744L30.8211 7.74577C30.8499 7.81311 30.8648 7.8856 30.8648 7.95886V51.5654C30.8648 51.7946 30.7204 51.9988 30.5045 52.0753L29.9173 52.2833C29.0549 52.5887 28.4208 53.3016 28.2004 54.1599H3.88523C3.66479 53.3016 3.03076 52.5887 2.16835 52.2833L1.58118 52.0753C1.36519 51.9988 1.22083 51.7946 1.22083 51.5654V8.03716C1.22083 7.94302 1.2454 7.85051 1.2921 7.76877L2.8974 4.95949C3.07489 4.6489 3.16825 4.29736 3.16825 3.93963V2.12061Z" fill="white" stroke="#101333" stroke-width="1.51466"/>
<path d="M1.43726 1.36372C1.43726 0.825958 1.8732 0.390015 2.41096 0.390015H30.6485C31.1862 0.390015 31.6222 0.825958 31.6222 1.36372C31.6222 1.90149 31.1862 2.33743 30.6485 2.33743H2.41096C1.8732 2.33743 1.43726 1.90149 1.43726 1.36372Z" fill="#101333"/>
<path d="M16.4018 53.5944L1.85046 30.3123V51.5543C3.07288 52.0063 3.59482 52.4126 4.30843 53.5944H16.4018Z" fill="#101333"/>
<path d="M15.8726 2.26777L30.424 25.5499L30.2917 5.31033C29.0693 4.85837 29.2856 3.44953 28.572 2.26777H15.8726Z" fill="#101333"/>
</svg>
