<svg width="154" height="140" viewBox="0 0 154 140" fill="none" xmlns="http://www.w3.org/2000/svg">
<ellipse cx="79.1142" cy="136.253" rx="33.6689" ry="3.44341" fill="#101333"/>
<path d="M98.113 27.845C98.278 27.8248 98.4379 27.7743 98.5846 27.696L101.747 26.0092C107.031 31.4119 110.635 35.9995 113.475 41.0229C116.306 46.0276 118.409 51.5168 120.642 58.7714L117.34 60.4225C117.096 60.5442 116.895 60.7367 116.763 60.9747L110.19 72.8062L53.69 105.32L45.1315 103.364C39.0138 97.1732 34.9876 92.2348 32.1281 87.1098C29.2802 82.0055 27.5509 76.6463 26.1194 69.5607L28.5388 62.5444L85.1498 29.4323L98.113 27.845Z" fill="white" stroke="#101333" stroke-width="2.70207" stroke-linecap="round" stroke-linejoin="round"/>
<path d="M85.5191 90.0026C85.5191 90.0026 78.4937 81.0858 74.7108 76.7625C72.0088 72.9796 72.9815 67.5214 76.8725 66.2244C79.5746 64.6031 83.0873 67.9357 84.4383 68.9265L97.138 80.4539L103.083 76.7625L102.002 84.8687C110.265 94.025 105.33 106.087 92.0041 111.257V137.829H66.6046L67.6855 109.998C64.8033 108.557 59.255 105.837 57.958 103.243L77.4129 91.8941C80.3852 88.9218 82.5469 88.6516 85.5191 90.0026Z" fill="white"/>
<path d="M74.7108 102.432C75.0578 100.251 75.325 94.5953 77.4129 91.8941M102.002 84.8687C110.265 94.025 105.33 106.087 92.0041 111.257M102.002 84.8687L103.083 76.7625L97.138 80.4539M102.002 84.8687L97.138 80.4539M82.5469 113.511C86.0394 113.123 89.2067 112.342 92.0041 111.257M92.0041 111.257V137.829H66.6046L67.6855 109.998C64.8033 108.557 59.255 105.837 57.958 103.243L77.4129 91.8941M77.4129 91.8941C80.3852 88.9218 82.5469 88.6516 85.5191 90.0026C85.5191 90.0026 78.4937 81.0858 74.7108 76.7625C72.0088 72.9796 72.9815 67.5214 76.8725 66.2244C79.5746 64.6031 83.0873 67.9357 84.4383 68.9265L97.138 80.4539" stroke="#101333" stroke-width="2.70207" stroke-linecap="round" stroke-linejoin="round"/>
<path d="M132.612 58.968H152M112.81 16.5063L117.134 1.9151M18.4721 58.968L1.6377 56.2267M41.4282 30.0166L28.0372 20.5594M77.0101 16.1167L74.0832 1.9151M132.612 31.8034L149.267 28.4562" stroke="#101333" stroke-width="2.70207" stroke-linecap="round" stroke-linejoin="round"/>
</svg>
