<svg width="154" height="140" viewBox="0 0 154 140" fill="none" xmlns="http://www.w3.org/2000/svg">
<ellipse cx="79.1142" cy="136.253" rx="33.6689" ry="3.44341" fill="#101333"/>
<path d="M26.4875 68.494L27.9713 64.1908C34.1757 70.8792 38.6779 76.5551 42.3651 82.794C46.0487 89.0268 48.9459 95.8675 51.8954 104.91L46.8619 103.76C46.9376 103.745 47.0131 103.724 47.0877 103.696C47.7856 103.432 48.1373 102.652 47.8733 101.954C42.1847 86.9152 37.8352 79.6477 28.4551 68.5928C27.9724 68.0238 27.1198 67.954 26.5509 68.4367C26.529 68.4553 26.5079 68.4744 26.4875 68.494ZM54.6837 104.749C51.6224 95.2599 48.6008 88.0342 44.6913 81.4192C40.7946 74.8258 36.044 68.887 29.5696 61.9416L84.4828 29.8226C91.3791 36.8782 96.2449 42.9547 100.036 49.8521C100.395 50.506 101.217 50.7447 101.871 50.3853C102.525 50.0259 102.763 49.2045 102.404 48.5506C98.6768 41.7694 93.9757 35.8008 87.5785 29.1349L97.3543 27.9379C106.997 40.3243 111.314 47.8277 116.46 61.5202L111.013 71.3245C109.96 67.3298 108.862 63.712 107.663 60.3645C107.411 59.6621 106.638 59.2967 105.935 59.5484C105.233 59.8001 104.868 60.5735 105.119 61.276C106.336 64.6716 107.453 68.3734 108.531 72.5097C108.631 72.8946 108.888 73.1974 109.215 73.3676L54.6837 104.749ZM45.8059 103.518L45.1318 103.364C39.014 97.1732 34.9878 92.2348 32.1284 87.1098C29.3526 82.1348 27.6394 76.9178 26.229 70.096C26.2743 70.1818 26.3295 70.264 26.3948 70.341C35.5673 81.1513 39.7623 88.1485 45.346 102.91C45.4414 103.162 45.6041 103.369 45.8059 103.518ZM118.681 59.7522C113.652 46.5319 109.248 38.8896 100.001 26.9408L101.748 26.0092C107.031 31.4119 110.635 35.9995 113.476 41.0229C116.306 46.0276 118.409 51.5168 120.642 58.7714L118.681 59.7522Z" fill="white" stroke="#101333" stroke-width="2.70207" stroke-linecap="round" stroke-linejoin="round"/>
<path d="M85.5191 90.0026C85.5191 90.0026 78.4937 81.0858 74.7108 76.7625C72.0088 72.9796 72.9815 67.5214 76.8725 66.2244C79.5746 64.6031 83.0873 67.9357 84.4383 68.9265L97.138 80.4539L103.083 76.7625L102.002 84.8687C110.265 94.025 105.33 106.087 92.0041 111.257V137.829H66.6046L67.6855 109.998C64.8033 108.557 59.255 105.837 57.958 103.243L77.4129 91.8941C80.3852 88.9218 82.5469 88.6516 85.5191 90.0026Z" fill="white"/>
<path d="M74.7108 102.432C75.0578 100.251 75.325 94.5953 77.4129 91.8941M102.002 84.8687C110.265 94.025 105.33 106.087 92.0041 111.257M102.002 84.8687L103.083 76.7625L97.138 80.4539M102.002 84.8687L97.138 80.4539M82.5469 113.511C86.0394 113.123 89.2067 112.342 92.0041 111.257M92.0041 111.257V137.829H66.6046L67.6855 109.998C64.8033 108.557 59.255 105.837 57.958 103.243L77.4129 91.8941M77.4129 91.8941C80.3852 88.9218 82.5469 88.6516 85.5191 90.0026C85.5191 90.0026 78.4937 81.0858 74.7108 76.7625C72.0088 72.9796 72.9815 67.5214 76.8725 66.2244C79.5746 64.6031 83.0873 67.9357 84.4383 68.9265L97.138 80.4539" stroke="#101333" stroke-width="2.70207" stroke-linecap="round" stroke-linejoin="round"/>
<path d="M132.612 58.968H152M112.81 16.5062L117.134 1.91504M18.4721 58.968L1.6377 56.2267M41.4282 30.0166L28.0372 20.5593M77.0101 16.1167L74.0832 1.91504M132.612 31.8033L149.267 28.4561" stroke="#101333" stroke-width="2.70207" stroke-linecap="round" stroke-linejoin="round"/>
</svg>
